<svg width="200" height="12" viewBox="0 0 200 12" fill="none" xmlns="http://www.w3.org/2000/svg">
<path d="M198.617 5.98747L198.437 0.120225H199.82L199.639 5.98747H198.617ZM199.122 8.89704C198.866 8.89704 198.653 8.81288 198.485 8.64456C198.325 8.46822 198.245 8.25581 198.245 8.00734C198.245 7.75085 198.325 7.53844 198.485 7.37012C198.653 7.20179 198.866 7.11763 199.122 7.11763C199.379 7.11763 199.587 7.20179 199.748 7.37012C199.916 7.53844 200 7.75085 200 8.00734C200 8.25581 199.916 8.46822 199.748 8.64456C199.587 8.81288 199.379 8.89704 199.122 8.89704Z" fill="#FFCB00"/>
<path d="M190.948 8.77682L188.627 3.00576H189.998L191.561 7.2018L191.152 7.21382L192.679 3.00576H193.449L194.976 7.21382L194.567 7.2018L196.13 3.00576H197.5L195.18 8.77682H194.41L192.847 4.78517H193.28L191.717 8.77682H190.948Z" fill="#FFCB00"/>
<path d="M185.276 8.89705C184.715 8.89705 184.206 8.7648 183.749 8.50029C183.292 8.22777 182.927 7.86307 182.655 7.40619C182.39 6.94932 182.258 6.44034 182.258 5.87927C182.258 5.31819 182.39 4.81323 182.655 4.36437C182.927 3.91551 183.292 3.55882 183.749 3.29432C184.206 3.02179 184.715 2.88553 185.276 2.88553C185.845 2.88553 186.358 3.01779 186.815 3.28229C187.272 3.5468 187.632 3.90749 187.897 4.36437C188.169 4.81323 188.306 5.31819 188.306 5.87927C188.306 6.44034 188.169 6.94932 187.897 7.40619C187.632 7.86307 187.272 8.22777 186.815 8.50029C186.358 8.7648 185.845 8.89705 185.276 8.89705ZM185.276 7.62261C185.605 7.62261 185.893 7.55047 186.142 7.40619C186.398 7.2539 186.594 7.0455 186.731 6.781C186.875 6.51649 186.947 6.21591 186.947 5.87927C186.947 5.54262 186.875 5.24606 186.731 4.98956C186.586 4.73307 186.39 4.53269 186.142 4.38841C185.893 4.23612 185.605 4.15998 185.276 4.15998C184.955 4.15998 184.667 4.23612 184.41 4.38841C184.162 4.53269 183.965 4.73307 183.821 4.98956C183.685 5.24606 183.617 5.54262 183.617 5.87927C183.617 6.21591 183.685 6.51649 183.821 6.781C183.965 7.0455 184.162 7.2539 184.41 7.40619C184.667 7.55047 184.955 7.62261 185.276 7.62261Z" fill="#FFCB00"/>
<path d="M174.193 8.7768V0.360676H175.155L175.576 1.94772V8.7768H174.193ZM180.024 8.7768L174.987 2.2002L175.155 0.360676L180.193 6.93728L180.024 8.7768ZM180.024 8.7768L179.603 7.29797V0.360676H180.986V8.7768H180.024Z" fill="#FFCB00"/>
<path d="M166.498 8.77682V3.00576H167.821V8.77682H166.498ZM167.821 5.56667L167.364 5.33823C167.364 4.60883 167.524 4.01971 167.845 3.57085C168.174 3.11397 168.666 2.88553 169.324 2.88553C169.612 2.88553 169.873 2.93763 170.105 3.04183C170.338 3.14603 170.554 3.31435 170.754 3.5468L169.889 4.4365C169.785 4.32429 169.668 4.24414 169.54 4.19604C169.412 4.14795 169.264 4.12391 169.095 4.12391C168.727 4.12391 168.422 4.24013 168.182 4.47257C167.941 4.70502 167.821 5.06972 167.821 5.56667Z" fill="#FFCB00"/>
<path d="M162.757 8.89705C162.18 8.89705 161.659 8.76881 161.194 8.51231C160.737 8.24781 160.372 7.88712 160.1 7.43024C159.835 6.97337 159.703 6.46038 159.703 5.89129C159.703 5.3222 159.835 4.81323 160.1 4.36437C160.364 3.90749 160.721 3.5468 161.17 3.28229C161.627 3.01779 162.132 2.88553 162.685 2.88553C163.222 2.88553 163.695 3.00977 164.104 3.25825C164.52 3.50672 164.845 3.84738 165.077 4.28021C165.318 4.71303 165.438 5.20598 165.438 5.75904C165.438 5.85522 165.43 5.95541 165.414 6.05961C165.406 6.1558 165.39 6.26401 165.366 6.38424H160.629V5.30216H164.681L164.188 5.73499C164.172 5.38232 164.104 5.08575 163.983 4.84529C163.863 4.60483 163.691 4.42047 163.466 4.29223C163.25 4.16398 162.981 4.09986 162.661 4.09986C162.324 4.09986 162.032 4.172 161.783 4.31627C161.535 4.46055 161.342 4.66494 161.206 4.92945C161.07 5.18594 161.002 5.49453 161.002 5.85522C161.002 6.21591 161.074 6.53252 161.218 6.80504C161.362 7.07756 161.567 7.28997 161.831 7.44226C162.096 7.58654 162.4 7.65868 162.745 7.65868C163.042 7.65868 163.314 7.60658 163.563 7.50238C163.819 7.39818 164.035 7.24589 164.212 7.0455L165.053 7.89914C164.773 8.22777 164.432 8.47624 164.031 8.64457C163.631 8.81289 163.206 8.89705 162.757 8.89705Z" fill="#FFCB00"/>
<path d="M156.574 8.77679V0.601127H157.897V8.77679H156.574ZM155.191 4.20804V3.00573H159.279V4.20804H155.191Z" fill="#FFCB00"/>
<path d="M152.418 8.89705C152.097 8.89705 151.789 8.85697 151.492 8.77682C151.196 8.68865 150.923 8.56842 150.675 8.41613C150.426 8.25582 150.21 8.06345 150.025 7.83902L150.867 6.99741C151.067 7.22986 151.296 7.40619 151.552 7.52642C151.817 7.63864 152.113 7.69475 152.442 7.69475C152.739 7.69475 152.963 7.65066 153.115 7.56249C153.268 7.47433 153.344 7.34608 153.344 7.17776C153.344 7.00142 153.272 6.86516 153.127 6.76897C152.983 6.67279 152.795 6.59264 152.562 6.52851C152.338 6.45637 152.097 6.38424 151.841 6.3121C151.592 6.23996 151.352 6.14378 151.119 6.02355C150.895 5.8953 150.711 5.72297 150.566 5.50656C150.422 5.29014 150.35 5.0096 150.35 4.66494C150.35 4.29624 150.434 3.97963 150.602 3.71512C150.779 3.45062 151.023 3.24622 151.336 3.10195C151.656 2.95767 152.037 2.88553 152.478 2.88553C152.943 2.88553 153.352 2.96969 153.704 3.13802C154.065 3.29832 154.366 3.54279 154.606 3.87142L153.765 4.71303C153.596 4.50464 153.404 4.34834 153.187 4.24414C152.971 4.13994 152.723 4.08784 152.442 4.08784C152.177 4.08784 151.973 4.12791 151.829 4.20807C151.685 4.28822 151.612 4.40444 151.612 4.55674C151.612 4.71704 151.685 4.84128 151.829 4.92945C151.973 5.01762 152.157 5.09376 152.382 5.15789C152.614 5.22201 152.855 5.29415 153.103 5.3743C153.36 5.44644 153.6 5.55064 153.825 5.6869C154.057 5.81515 154.245 5.99148 154.39 6.21591C154.534 6.43233 154.606 6.71687 154.606 7.06955C154.606 7.63062 154.41 8.07548 154.017 8.40411C153.624 8.73274 153.091 8.89705 152.418 8.89705Z" fill="#FFCB00"/>
<path d="M147.724 8.7768V3.00574H149.047V8.7768H147.724ZM148.386 1.94772C148.161 1.94772 147.973 1.87157 147.821 1.71928C147.676 1.56699 147.604 1.37863 147.604 1.1542C147.604 0.929767 147.676 0.741406 147.821 0.589114C147.973 0.436822 148.161 0.360676 148.386 0.360676C148.618 0.360676 148.807 0.436822 148.951 0.589114C149.095 0.741406 149.167 0.929767 149.167 1.1542C149.167 1.37863 149.095 1.56699 148.951 1.71928C148.807 1.87157 148.618 1.94772 148.386 1.94772Z" fill="#FFCB00"/>
<path d="M143.201 11.3017C142.592 11.3017 142.059 11.1894 141.602 10.965C141.145 10.7486 140.777 10.44 140.496 10.0392L141.362 9.17358C141.594 9.46213 141.859 9.67855 142.155 9.82282C142.452 9.9671 142.809 10.0392 143.225 10.0392C143.746 10.0392 144.159 9.90298 144.464 9.63046C144.768 9.36595 144.921 9.00125 144.921 8.53636V7.11764L145.149 5.8432L144.921 4.55674V3.00576H146.243V8.53636C146.243 9.08942 146.115 9.57034 145.858 9.97912C145.602 10.3959 145.245 10.7205 144.788 10.953C144.332 11.1854 143.803 11.3017 143.201 11.3017ZM143.141 8.65659C142.628 8.65659 142.163 8.53235 141.747 8.28388C141.338 8.02738 141.013 7.67872 140.773 7.23787C140.54 6.79703 140.424 6.30408 140.424 5.75904C140.424 5.21399 140.54 4.72506 140.773 4.29223C141.013 3.8594 141.338 3.51875 141.747 3.27027C142.163 3.01378 142.628 2.88553 143.141 2.88553C143.598 2.88553 143.999 2.97771 144.344 3.16206C144.688 3.34642 144.957 3.60291 145.149 3.93154C145.341 4.25215 145.438 4.62887 145.438 5.0617V6.48042C145.438 6.90523 145.337 7.28196 145.137 7.61059C144.945 7.93922 144.676 8.19571 144.332 8.38006C143.987 8.56441 143.59 8.65659 143.141 8.65659ZM143.406 7.40619C143.726 7.40619 144.007 7.33806 144.247 7.2018C144.488 7.06554 144.672 6.87718 144.8 6.63672C144.937 6.38824 145.005 6.09969 145.005 5.77106C145.005 5.44243 144.937 5.15789 144.8 4.91743C144.672 4.66895 144.488 4.47658 144.247 4.34032C144.007 4.20406 143.726 4.13593 143.406 4.13593C143.085 4.13593 142.801 4.20406 142.552 4.34032C142.312 4.47658 142.123 4.66895 141.987 4.91743C141.851 5.15789 141.783 5.44243 141.783 5.77106C141.783 6.09168 141.851 6.37622 141.987 6.6247C142.123 6.87317 142.312 7.06554 142.552 7.2018C142.801 7.33806 143.085 7.40619 143.406 7.40619Z" fill="#FFCB00"/>
<path d="M137.055 8.89705C136.478 8.89705 135.957 8.76881 135.492 8.51231C135.036 8.24781 134.671 7.88712 134.398 7.43024C134.134 6.97337 134.002 6.46038 134.002 5.89129C134.002 5.3222 134.134 4.81323 134.398 4.36437C134.663 3.90749 135.02 3.5468 135.468 3.28229C135.925 3.01779 136.43 2.88553 136.983 2.88553C137.52 2.88553 137.993 3.00977 138.402 3.25825C138.819 3.50672 139.143 3.84738 139.376 4.28021C139.616 4.71303 139.737 5.20598 139.737 5.75904C139.737 5.85522 139.729 5.95541 139.713 6.05961C139.705 6.1558 139.688 6.26401 139.664 6.38424H134.927V5.30216H138.979L138.486 5.73499C138.47 5.38232 138.402 5.08575 138.282 4.84529C138.162 4.60483 137.989 4.42047 137.765 4.29223C137.548 4.16398 137.28 4.09986 136.959 4.09986C136.623 4.09986 136.33 4.172 136.082 4.31627C135.833 4.46055 135.641 4.66494 135.504 4.92945C135.368 5.18594 135.3 5.49453 135.3 5.85522C135.3 6.21591 135.372 6.53252 135.517 6.80504C135.661 7.07756 135.865 7.28997 136.13 7.44226C136.394 7.58654 136.699 7.65868 137.043 7.65868C137.34 7.65868 137.613 7.60658 137.861 7.50238C138.117 7.39818 138.334 7.24589 138.51 7.0455L139.352 7.89914C139.071 8.22777 138.731 8.47624 138.33 8.64457C137.929 8.81289 137.504 8.89705 137.055 8.89705Z" fill="#FFCB00"/>
<path d="M128.295 5.20596V4.06377H130.423C130.848 4.06377 131.177 3.95556 131.409 3.73915C131.65 3.51472 131.77 3.20613 131.77 2.81338C131.77 2.4607 131.654 2.16413 131.421 1.92367C131.189 1.68321 130.86 1.56298 130.435 1.56298H128.295V0.360676H130.496C131.025 0.360676 131.489 0.468884 131.89 0.685298C132.291 0.893698 132.6 1.18225 132.816 1.55096C133.04 1.91165 133.153 2.32444 133.153 2.78933C133.153 3.27827 133.04 3.70308 132.816 4.06377C132.6 4.42446 132.291 4.705 131.89 4.90538C131.489 5.10577 131.025 5.20596 130.496 5.20596H128.295ZM127.346 8.7768V0.360676H128.728V8.7768H127.346ZM131.962 8.7768L129.017 5.1218L130.303 4.6529L133.706 8.7768H131.962Z" fill="#FFCB00"/>
<path d="M120.516 5.98747V3.66703H120.84C121.105 3.66703 121.333 3.61893 121.526 3.52275C121.726 3.41855 121.878 3.27828 121.983 3.10194C122.095 2.91759 122.151 2.70518 122.151 2.46472C122.151 2.22426 122.099 2.01586 121.995 1.83952C121.89 1.66319 121.742 1.52693 121.55 1.43074C121.357 1.33456 121.129 1.28646 120.864 1.28646C120.52 1.28646 120.211 1.38265 119.939 1.57502C119.674 1.75937 119.462 2.0359 119.301 2.40461L118.34 1.61109C118.58 1.09009 118.925 0.693328 119.374 0.420806C119.83 0.140269 120.351 0 120.937 0C121.442 0 121.886 0.100192 122.271 0.300576C122.664 0.50096 122.969 0.781497 123.185 1.14219C123.401 1.49486 123.51 1.90365 123.51 2.36854C123.51 2.80137 123.413 3.1861 123.221 3.52275C123.037 3.85939 122.772 4.13993 122.427 4.36436C122.083 4.58879 121.674 4.74509 121.201 4.83326L121.778 4.24413L121.658 5.98747H120.516ZM121.081 8.89705C120.824 8.89705 120.612 8.81289 120.444 8.64456C120.283 8.46822 120.203 8.25582 120.203 8.00734C120.203 7.75085 120.283 7.53844 120.444 7.37012C120.612 7.2018 120.824 7.11764 121.081 7.11764C121.337 7.11764 121.546 7.2018 121.706 7.37012C121.874 7.53844 121.959 7.75085 121.959 8.00734C121.959 8.25582 121.874 8.46822 121.706 8.64456C121.546 8.81289 121.337 8.89705 121.081 8.89705Z" fill="#222222" fill-opacity="0.9"/>
<path d="M115.01 8.77679V0.601127H116.333V8.77679H115.01ZM113.627 4.20804V3.00573H117.715V4.20804H113.627Z" fill="#222222" fill-opacity="0.9"/>
<path d="M111.536 8.77682V5.44644C111.536 5.0617 111.412 4.7451 111.164 4.49662C110.923 4.24814 110.611 4.12391 110.226 4.12391C109.969 4.12391 109.741 4.18001 109.541 4.29223C109.34 4.40444 109.184 4.56074 109.072 4.76113C108.959 4.96151 108.903 5.18995 108.903 5.44644L108.386 5.15789C108.386 4.71704 108.482 4.3283 108.675 3.99165C108.867 3.64699 109.132 3.37848 109.468 3.18611C109.813 2.98573 110.198 2.88553 110.623 2.88553C111.055 2.88553 111.44 2.99775 111.777 3.22218C112.113 3.43859 112.378 3.72314 112.57 4.07581C112.763 4.42047 112.859 4.78116 112.859 5.15789V8.77682H111.536ZM107.581 8.77682V3.00576H108.903V8.77682H107.581Z" fill="#222222" fill-opacity="0.9"/>
<path d="M103.738 8.89705C103.249 8.89705 102.812 8.78884 102.428 8.57242C102.051 8.35601 101.754 8.05944 101.538 7.68272C101.33 7.29798 101.225 6.85714 101.225 6.36019V3.00576H102.548V6.30007C102.548 6.58061 102.592 6.82107 102.68 7.02145C102.776 7.21382 102.913 7.36211 103.089 7.46631C103.273 7.5705 103.49 7.6226 103.738 7.6226C104.123 7.6226 104.416 7.51039 104.616 7.28596C104.824 7.05351 104.929 6.72488 104.929 6.30007V3.00576H106.251V6.36019C106.251 6.86515 106.143 7.31001 105.926 7.69474C105.718 8.07146 105.425 8.36803 105.049 8.58445C104.672 8.79285 104.235 8.89705 103.738 8.89705Z" fill="#222222" fill-opacity="0.9"/>
<path d="M97.2401 8.89705C96.679 8.89705 96.17 8.7648 95.7131 8.50029C95.2562 8.22777 94.8915 7.86307 94.619 7.40619C94.3545 6.94932 94.2223 6.44034 94.2223 5.87927C94.2223 5.31819 94.3545 4.81323 94.619 4.36437C94.8915 3.91551 95.2562 3.55882 95.7131 3.29432C96.17 3.02179 96.679 2.88553 97.2401 2.88553C97.8091 2.88553 98.3221 3.01779 98.779 3.28229C99.2359 3.5468 99.5966 3.90749 99.8611 4.36437C100.134 4.81323 100.27 5.31819 100.27 5.87927C100.27 6.44034 100.134 6.94932 99.8611 7.40619C99.5966 7.86307 99.2359 8.22777 98.779 8.50029C98.3221 8.7648 97.8091 8.89705 97.2401 8.89705ZM97.2401 7.62261C97.5687 7.62261 97.8572 7.55047 98.1057 7.40619C98.3622 7.2539 98.5586 7.0455 98.6948 6.781C98.8391 6.51649 98.9113 6.21591 98.9113 5.87927C98.9113 5.54262 98.8391 5.24606 98.6948 4.98956C98.5506 4.73307 98.3542 4.53269 98.1057 4.38841C97.8572 4.23612 97.5687 4.15998 97.2401 4.15998C96.9194 4.15998 96.6309 4.23612 96.3744 4.38841C96.1259 4.53269 95.9295 4.73307 95.7853 4.98956C95.649 5.24606 95.5809 5.54262 95.5809 5.87927C95.5809 6.21591 95.649 6.51649 95.7853 6.781C95.9295 7.0455 96.1259 7.2539 96.3744 7.40619C96.6309 7.55047 96.9194 7.62261 97.2401 7.62261Z" fill="#222222" fill-opacity="0.9"/>
<path d="M91.5106 8.89705C90.9415 8.89705 90.4245 8.7648 89.9596 8.50029C89.5028 8.23578 89.1421 7.87509 88.8776 7.41822C88.613 6.96134 88.4808 6.45237 88.4808 5.89129C88.4808 5.3222 88.613 4.81323 88.8776 4.36437C89.1421 3.90749 89.5028 3.5468 89.9596 3.28229C90.4245 3.01779 90.9415 2.88553 91.5106 2.88553C91.9595 2.88553 92.3763 2.9737 92.761 3.15004C93.1538 3.31836 93.4864 3.56283 93.7589 3.88345L92.8933 4.76113C92.7249 4.56074 92.5205 4.41246 92.2801 4.31627C92.0476 4.21207 91.7911 4.15998 91.5106 4.15998C91.182 4.15998 90.8894 4.23612 90.6329 4.38841C90.3844 4.53269 90.1881 4.73307 90.0438 4.98956C89.9075 5.24606 89.8394 5.54663 89.8394 5.89129C89.8394 6.22794 89.9075 6.52851 90.0438 6.79302C90.1881 7.04951 90.3844 7.2539 90.6329 7.40619C90.8894 7.55047 91.182 7.62261 91.5106 7.62261C91.7911 7.62261 92.0476 7.57452 92.2801 7.47833C92.5205 7.37413 92.7249 7.22184 92.8933 7.02146L93.7589 7.89914C93.4864 8.21975 93.1538 8.46823 92.761 8.64457C92.3763 8.81289 91.9595 8.89705 91.5106 8.89705Z" fill="#222222" fill-opacity="0.9"/>
<path d="M85.7691 8.89705C85.2 8.89705 84.6831 8.7648 84.2182 8.50029C83.7613 8.23578 83.4006 7.87509 83.1361 7.41822C82.8716 6.96134 82.7393 6.45237 82.7393 5.89129C82.7393 5.3222 82.8716 4.81323 83.1361 4.36437C83.4006 3.90749 83.7613 3.5468 84.2182 3.28229C84.6831 3.01779 85.2 2.88553 85.7691 2.88553C86.218 2.88553 86.6348 2.9737 87.0195 3.15004C87.4123 3.31836 87.7449 3.56283 88.0174 3.88345L87.1518 4.76113C86.9835 4.56074 86.7791 4.41246 86.5386 4.31627C86.3062 4.21207 86.0497 4.15998 85.7691 4.15998C85.4405 4.15998 85.1479 4.23612 84.8915 4.38841C84.643 4.53269 84.4466 4.73307 84.3023 4.98956C84.1661 5.24606 84.0979 5.54663 84.0979 5.89129C84.0979 6.22794 84.1661 6.52851 84.3023 6.79302C84.4466 7.04951 84.643 7.2539 84.8915 7.40619C85.1479 7.55047 85.4405 7.62261 85.7691 7.62261C86.0497 7.62261 86.3062 7.57452 86.5386 7.47833C86.7791 7.37413 86.9835 7.22184 87.1518 7.02146L88.0174 7.89914C87.7449 8.21975 87.4123 8.46823 87.0195 8.64457C86.6348 8.81289 86.218 8.89705 85.7691 8.89705Z" fill="#222222" fill-opacity="0.9"/>
<path d="M78.5543 8.89705C78.0333 8.89705 77.5604 8.7648 77.1356 8.50029C76.7188 8.23578 76.3862 7.8791 76.1377 7.43024C75.8972 6.97337 75.777 6.46439 75.777 5.90332C75.777 5.33422 75.8972 4.82525 76.1377 4.37639C76.3862 3.91951 76.7188 3.55882 77.1356 3.29432C77.5604 3.02179 78.0333 2.88553 78.5543 2.88553C78.9952 2.88553 79.3839 2.98172 79.7206 3.17409C80.0652 3.35844 80.3378 3.61493 80.5381 3.94356C80.7385 4.27219 80.8387 4.6449 80.8387 5.0617V6.72088C80.8387 7.13768 80.7385 7.51039 80.5381 7.83902C80.3458 8.16765 80.0773 8.42815 79.7326 8.62052C79.3879 8.80487 78.9952 8.89705 78.5543 8.89705ZM78.7708 7.64665C79.2597 7.64665 79.6524 7.48234 79.949 7.15371C80.2536 6.82508 80.4059 6.40427 80.4059 5.89129C80.4059 5.54663 80.3378 5.24205 80.2015 4.97754C80.0652 4.71303 79.8729 4.50864 79.6244 4.36437C79.3839 4.21207 79.0994 4.13593 78.7708 4.13593C78.4501 4.13593 78.1656 4.21207 77.9171 4.36437C77.6767 4.50864 77.4843 4.71303 77.34 4.97754C77.2037 5.24205 77.1356 5.54663 77.1356 5.89129C77.1356 6.23595 77.2037 6.54054 77.34 6.80504C77.4843 7.06955 77.6767 7.27795 77.9171 7.43024C78.1656 7.57452 78.4501 7.64665 78.7708 7.64665ZM80.3217 8.77682V7.22585L80.5502 5.81915L80.3217 4.42448V3.00576H81.6443V8.77682H80.3217Z" fill="#222222" fill-opacity="0.9"/>
<path d="M71.0643 8.77682V5.44644C71.0643 5.0617 70.94 4.7451 70.6915 4.49662C70.4511 4.24814 70.1385 4.12391 69.7537 4.12391C69.4973 4.12391 69.2688 4.18001 69.0684 4.29223C68.868 4.40444 68.7117 4.56074 68.5995 4.76113C68.4873 4.96151 68.4312 5.18995 68.4312 5.44644L67.9142 5.15789C67.9142 4.71704 68.0104 4.3283 68.2028 3.99165C68.3951 3.64699 68.6596 3.37848 68.9963 3.18611C69.3409 2.98573 69.7257 2.88553 70.1505 2.88553C70.5833 2.88553 70.9681 2.99775 71.3047 3.22218C71.6414 3.43859 71.9059 3.72314 72.0982 4.07581C72.2906 4.42047 72.3868 4.78116 72.3868 5.15789V8.77682H71.0643ZM67.1087 8.77682V3.00576H68.4312V8.77682H67.1087Z" fill="#222222" fill-opacity="0.9"/>
<path d="M62.551 8.89705C62.03 8.89705 61.5571 8.7648 61.1323 8.50029C60.7155 8.23578 60.3829 7.8791 60.1344 7.43024C59.8939 6.97337 59.7737 6.46439 59.7737 5.90332C59.7737 5.33422 59.8939 4.82525 60.1344 4.37639C60.3829 3.91951 60.7155 3.55882 61.1323 3.29432C61.5571 3.02179 62.03 2.88553 62.551 2.88553C62.9919 2.88553 63.3806 2.98172 63.7173 3.17409C64.0619 3.35844 64.3344 3.61493 64.5348 3.94356C64.7352 4.27219 64.8354 4.6449 64.8354 5.0617V6.72088C64.8354 7.13768 64.7352 7.51039 64.5348 7.83902C64.3425 8.16765 64.0739 8.42815 63.7293 8.62052C63.3846 8.80487 62.9919 8.89705 62.551 8.89705ZM62.7674 7.64665C63.2564 7.64665 63.6491 7.48234 63.9457 7.15371C64.2503 6.82508 64.4026 6.40427 64.4026 5.89129C64.4026 5.54663 64.3344 5.24205 64.1982 4.97754C64.0619 4.71303 63.8695 4.50864 63.6211 4.36437C63.3806 4.21207 63.0961 4.13593 62.7674 4.13593C62.4468 4.13593 62.1623 4.21207 61.9138 4.36437C61.6733 4.50864 61.481 4.71303 61.3367 4.97754C61.2004 5.24205 61.1323 5.54663 61.1323 5.89129C61.1323 6.23595 61.2004 6.54054 61.3367 6.80504C61.481 7.06955 61.6733 7.27795 61.9138 7.43024C62.1623 7.57452 62.4468 7.64665 62.7674 7.64665ZM64.3184 8.77682V7.22585L64.5468 5.81915L64.3184 4.42448V3.00576H65.6409V8.77682H64.3184Z" fill="#222222" fill-opacity="0.9"/>
<path d="M53.9861 8.89705C53.409 8.89705 52.888 8.76881 52.4232 8.51231C51.9663 8.24781 51.6016 7.88712 51.3291 7.43024C51.0646 6.97337 50.9323 6.46038 50.9323 5.89129C50.9323 5.3222 51.0646 4.81323 51.3291 4.36437C51.5936 3.90749 51.9502 3.5468 52.3991 3.28229C52.856 3.01779 53.3609 2.88553 53.914 2.88553C54.451 2.88553 54.9239 3.00977 55.3327 3.25825C55.7495 3.50672 56.0741 3.84738 56.3066 4.28021C56.5471 4.71303 56.6673 5.20598 56.6673 5.75904C56.6673 5.85522 56.6593 5.95541 56.6432 6.05961C56.6352 6.1558 56.6192 6.26401 56.5951 6.38424H51.8581V5.30216H55.9098L55.4169 5.73499C55.4009 5.38232 55.3327 5.08575 55.2125 4.84529C55.0923 4.60483 54.9199 4.42047 54.6955 4.29223C54.4791 4.16398 54.2106 4.09986 53.89 4.09986C53.5533 4.09986 53.2608 4.172 53.0123 4.31627C52.7638 4.46055 52.5714 4.66494 52.4352 4.92945C52.2989 5.18594 52.2308 5.49453 52.2308 5.85522C52.2308 6.21591 52.3029 6.53252 52.4472 6.80504C52.5915 7.07756 52.7959 7.28997 53.0604 7.44226C53.3249 7.58654 53.6295 7.65868 53.9741 7.65868C54.2707 7.65868 54.5432 7.60658 54.7917 7.50238C55.0482 7.39818 55.2646 7.24589 55.4409 7.0455L56.2825 7.89914C56.002 8.22777 55.6614 8.47624 55.2606 8.64457C54.8598 8.81289 54.435 8.89705 53.9861 8.89705Z" fill="#222222" fill-opacity="0.9"/>
<path d="M47.3234 8.77682L44.6904 3.00576H46.1572L48.165 7.70677H47.2994L49.3192 3.00576H50.7259L48.0929 8.77682H47.3234Z" fill="#222222" fill-opacity="0.9"/>
<path d="M40.818 8.89705C40.297 8.89705 39.8241 8.7648 39.3993 8.50029C38.9825 8.23578 38.6498 7.8791 38.4013 7.43024C38.1609 6.97337 38.0407 6.46439 38.0407 5.90332C38.0407 5.33422 38.1609 4.82525 38.4013 4.37639C38.6498 3.91951 38.9825 3.55882 39.3993 3.29432C39.8241 3.02179 40.297 2.88553 40.818 2.88553C41.2588 2.88553 41.6476 2.98172 41.9842 3.17409C42.3289 3.35844 42.6014 3.61493 42.8018 3.94356C43.0022 4.27219 43.1024 4.6449 43.1024 5.0617V6.72088C43.1024 7.13768 43.0022 7.51039 42.8018 7.83902C42.6094 8.16765 42.3409 8.42815 41.9962 8.62052C41.6516 8.80487 41.2588 8.89705 40.818 8.89705ZM41.0344 7.64665C41.5233 7.64665 41.9161 7.48234 42.2126 7.15371C42.5172 6.82508 42.6695 6.40427 42.6695 5.89129C42.6695 5.54663 42.6014 5.24205 42.4651 4.97754C42.3289 4.71303 42.1365 4.50864 41.888 4.36437C41.6476 4.21207 41.363 4.13593 41.0344 4.13593C40.7138 4.13593 40.4292 4.21207 40.1808 4.36437C39.9403 4.50864 39.7479 4.71303 39.6036 4.97754C39.4674 5.24205 39.3993 5.54663 39.3993 5.89129C39.3993 6.23595 39.4674 6.54054 39.6036 6.80504C39.7479 7.06955 39.9403 7.27795 40.1808 7.43024C40.4292 7.57452 40.7138 7.64665 41.0344 7.64665ZM42.5854 8.77682V7.22585L42.8138 5.81915L42.5854 4.42448V3.00576H43.9079V8.77682H42.5854Z" fill="#222222" fill-opacity="0.9"/>
<path d="M35.7348 8.77681V5.44643C35.7348 5.06169 35.6106 4.74509 35.3621 4.49661C35.1217 4.24813 34.8091 4.1239 34.4243 4.1239C34.1678 4.1239 33.9394 4.18 33.739 4.29222C33.5386 4.40443 33.3823 4.56073 33.2701 4.76112C33.1579 4.9615 33.1018 5.18994 33.1018 5.44643L32.5848 5.15788C32.5848 4.71703 32.681 4.32829 32.8734 3.99164C33.0657 3.64698 33.3302 3.37847 33.6669 3.1861C34.0115 2.98572 34.3963 2.88552 34.8211 2.88552C35.2539 2.88552 35.6387 2.98171 35.9753 3.17408C36.312 3.36645 36.5765 3.63496 36.7688 3.97962C36.9612 4.31626 37.0574 4.70902 37.0574 5.15788V8.77681H35.7348ZM31.7793 8.77681V0.120225H33.1018V8.77681H31.7793Z" fill="#222222" fill-opacity="0.9"/>
<path d="M25.7062 8.77679V0.601127H27.0288V8.77679H25.7062ZM24.3236 4.20804V3.00573H28.4114V4.20804H24.3236Z" fill="#222222" fill-opacity="0.9"/>
<path d="M21.7489 3.30633L22.5665 1.7794L23.0114 1.65917C22.9633 1.75535 22.9072 1.83551 22.843 1.89963C22.7789 1.96375 22.7028 1.99581 22.6146 1.99581C22.4302 1.99581 22.2579 1.91967 22.0976 1.76738C21.9453 1.60707 21.8692 1.40669 21.8692 1.16622C21.8692 0.909733 21.9573 0.693319 22.1337 0.516981C22.31 0.332628 22.5224 0.240451 22.7709 0.240451C23.0114 0.240451 23.2198 0.332628 23.3961 0.516981C23.5805 0.693319 23.6726 0.909733 23.6726 1.16622C23.6726 1.27042 23.6486 1.39466 23.6005 1.53894C23.5604 1.6752 23.4843 1.85154 23.3721 2.06795L22.4823 3.70309L21.7489 3.30633Z" fill="#222222" fill-opacity="0.9"/>
<path d="M19.4497 8.77682V5.44644C19.4497 5.0617 19.3255 4.7451 19.077 4.49662C18.8366 4.24814 18.524 4.12391 18.1392 4.12391C17.8827 4.12391 17.6543 4.18001 17.4539 4.29223C17.2535 4.40444 17.0972 4.56074 16.985 4.76113C16.8728 4.96151 16.8167 5.18995 16.8167 5.44644L16.2997 5.15789C16.2997 4.71704 16.3959 4.3283 16.5883 3.99165C16.7806 3.64699 17.0451 3.37848 17.3818 3.18611C17.7264 2.98573 18.1112 2.88553 18.536 2.88553C18.9688 2.88553 19.3536 2.99775 19.6902 3.22218C20.0268 3.43859 20.2914 3.72314 20.4837 4.07581C20.6761 4.42047 20.7723 4.78116 20.7723 5.15789V8.77682H19.4497ZM15.4942 8.77682V3.00576H16.8167V8.77682H15.4942Z" fill="#222222" fill-opacity="0.9"/>
<path d="M11.3646 8.89705C10.8035 8.89705 10.2945 8.7648 9.83766 8.50029C9.38078 8.22777 9.01608 7.86307 8.74356 7.40619C8.47906 6.94932 8.3468 6.44034 8.3468 5.87927C8.3468 5.31819 8.47906 4.81323 8.74356 4.36437C9.01608 3.91551 9.38078 3.55882 9.83766 3.29432C10.2945 3.02179 10.8035 2.88553 11.3646 2.88553C11.9337 2.88553 12.4467 3.01779 12.9035 3.28229C13.3604 3.5468 13.7211 3.90749 13.9856 4.36437C14.2581 4.81323 14.3944 5.31819 14.3944 5.87927C14.3944 6.44034 14.2581 6.94932 13.9856 7.40619C13.7211 7.86307 13.3604 8.22777 12.9035 8.50029C12.4467 8.7648 11.9337 8.89705 11.3646 8.89705ZM11.3646 7.62261C11.6932 7.62261 11.9818 7.55047 12.2302 7.40619C12.4867 7.2539 12.6831 7.0455 12.8194 6.781C12.9636 6.51649 13.0358 6.21591 13.0358 5.87927C13.0358 5.54262 12.9636 5.24606 12.8194 4.98956C12.6751 4.73307 12.4787 4.53269 12.2302 4.38841C11.9818 4.23612 11.6932 4.15998 11.3646 4.15998C11.044 4.15998 10.7554 4.23612 10.4989 4.38841C10.2505 4.53269 10.0541 4.73307 9.9098 4.98956C9.77354 5.24606 9.70541 5.54262 9.70541 5.87927C9.70541 6.21591 9.77354 6.51649 9.9098 6.781C10.0541 7.0455 10.2505 7.2539 10.4989 7.40619C10.7554 7.55047 11.044 7.62261 11.3646 7.62261Z" fill="#222222" fill-opacity="0.9"/>
<path d="M0.94982 8.7768V7.51438H3.16206C3.73916 7.51438 4.24413 7.39014 4.67696 7.14167C5.11781 6.89319 5.45846 6.54853 5.69892 6.10769C5.94739 5.65883 6.07163 5.14184 6.07163 4.55672C6.07163 3.97961 5.94739 3.47064 5.69892 3.02979C5.45044 2.58895 5.10578 2.24429 4.66494 1.99581C4.23211 1.74733 3.73115 1.6231 3.16206 1.6231H0.94982V0.360676H3.19813C3.80729 0.360676 4.37238 0.468884 4.89338 0.685298C5.41437 0.893698 5.86724 1.19027 6.25198 1.575C6.64473 1.95172 6.94931 2.39658 7.16573 2.90956C7.38214 3.41453 7.49035 3.96759 7.49035 4.56874C7.49035 5.16188 7.38214 5.71493 7.16573 6.22792C6.94931 6.7409 6.64874 7.18976 6.264 7.5745C5.87926 7.95122 5.4264 8.24779 4.9054 8.4642C4.3844 8.6726 3.82333 8.7768 3.22217 8.7768H0.94982ZM0 8.7768V0.360676H1.38265V8.7768H0Z" fill="#222222" fill-opacity="0.9"/>
</svg>
